# xmcd CD database file
#
# Track frame offsets:
#	150
#	12829
#	24095
#	39004
#	62649
#	74474
#	90524
#	100531
#	115266
#	127590
#	140521
#	154054
#	167454
#	181290
#	194896
#	208548
#	220654
#	233114
#	248249
#	264424
#	278527
#	289937
#
# Disc length: 4025 seconds
#
# Revision: 0
# Processed by: cddbd v1.5.2PL0 Copyright (c) Steve Scherf et al.
# Submitted via: CDex 1.51
#
DISCID=230fb716
DTITLE=San Francisco - Post-War California Down Home Blues
DYEAR=2007
DGENRE=Blues
TTITLE0=Fulson, Lowell, San Francisco Blues (1946)
TTITLE1=Diamond, Black - Lonesome Blues (1948)
TTITLE2=Douglas, K. C. - Big Road Blues (1952)
TTITLE3=Fuller, Jesse - Leaving Memphis Frisco Bound (1955)
TTITLE4=Dee, Mercy - Lonesome Cabin Blues (1949)
TTITLE5=Fulson, Lowell, Double Trouble Blues (1948)
TTITLE6=Little Ceasar - Can't Stand It All Alone (1953)
TTITLE7=Fuller, Johnny - Buddy (1954)
TTITLE8=Fuller, Johnny - Train Train Blues (1954)
TTITLE9=Huff, Willie B. - Beggar Man Blues (1954)
TTITLE10=Robinson, Walter - I've Done Everything I Can (1954)
TTITLE11=Thomas, Lafayette (Sam's Drag (1951)
TTITLE12=Wilson, Jimmy - Tin Pan Alley (1953)
TTITLE13=Wilson, Jimmy - A Woman Is To Blame (1953)
TTITLE14=Reed, James - Doctor Brown (1954)
TTITLE15=Reed, James - My Mama Told Me (1954)
TTITLE16=Thomas, Lafayette - Don't Have To Worry (1954)
TTITLE17=Thomas, Lafayette - Lost Mind (1954)
TTITLE18=McCraklin, Jimmy - The Panic's On (1954)
TTITLE19=McCraklin, Jimmy - The End (1954)
TTITLE20=Parker, Johnny - What You Did To Me? (1954)
TTITLE21=Thomas, Lafayette - Cockroach Run (1955)
EXTD=YEAR: 2007
EXTT0=
EXTT1=
EXTT2=
EXTT3=
EXTT4=
EXTT5=
EXTT6=
EXTT7=
EXTT8=
EXTT9=
EXTT10=
EXTT11=
EXTT12=
EXTT13=
EXTT14=
EXTT15=
EXTT16=
EXTT17=
EXTT18=
EXTT19=
EXTT20=
EXTT21=
PLAYORDER=
